<svg width="24" height="24" viewBox="0 0 24 24" fill="none" xmlns="http://www.w3.org/2000/svg">
<circle cx="12" cy="9.75" r="8.75" fill="#212123"/>
<path fill-rule="evenodd" clip-rule="evenodd" d="M18.5764 15.859C17.3009 18.1783 14.8341 19.75 12.0002 19.75C9.16636 19.75 6.69957 18.1783 5.42405 15.859C5.38617 15.8716 5.34775 15.8831 5.3088 15.8935C3.97514 16.2509 2.53187 15.1891 2.08518 13.522C1.63849 11.855 2.35752 10.2138 3.69118 9.85648C4.08692 9.75045 4.4923 9.76936 4.87844 9.89196C5.86688 6.90506 8.68189 4.75 12.0002 4.75C15.3186 4.75 18.1336 6.90505 19.122 9.89193C19.5082 9.76935 19.9135 9.75045 20.3092 9.85648C21.6429 10.2138 22.3619 11.855 21.9152 13.522C21.4685 15.1891 20.0253 16.2509 18.6916 15.8935C18.6527 15.8831 18.6143 15.8716 18.5764 15.859Z" fill="url(#paint0_linear_367_8412)"/>
<path fill-rule="evenodd" clip-rule="evenodd" d="M20.75 9.75C20.75 9.84359 20.7485 9.93684 20.7456 10.0297C20.6088 9.95615 20.463 9.89775 20.309 9.85648C19.9133 9.75045 19.5079 9.76935 19.1218 9.89193C19.1212 9.89006 19.1206 9.88819 19.1199 9.88633L18.9266 10.8774L18.5869 9.88287C14.0869 9.88287 12.2088 8.5 12.0005 7.25V4.75C12.0004 4.75 12.0003 4.75 12.0002 4.75V7.25C11.7918 8.5 9.91366 9.88287 5.41366 9.88287L5.07406 10.8774L4.88044 9.88517C4.87969 9.88743 4.87894 9.8897 4.8782 9.89196C4.49206 9.76936 4.08668 9.75045 3.69094 9.85648C3.53694 9.89775 3.39114 9.95613 3.25439 10.0297C3.25147 9.93681 3.25 9.84358 3.25 9.75C3.25 4.91751 7.16751 1 12 1C16.8325 1 20.75 4.91751 20.75 9.75Z" fill="url(#paint1_linear_367_8412)"/>
<ellipse cx="10.125" cy="12.25" rx="0.625" ry="1.25" fill="#242222"/>
<ellipse cx="13.875" cy="12.25" rx="0.625" ry="1.25" fill="#242222"/>
<path fill-rule="evenodd" clip-rule="evenodd" d="M11.6219 16.4803C10.8716 16.3582 10.2522 15.9439 9.9043 15.596L10.3462 15.1541C10.6234 15.4312 11.129 15.7669 11.7224 15.8635C12.2964 15.9569 12.9763 15.832 13.6543 15.1541L14.0962 15.596C13.2742 16.418 12.3917 16.6056 11.6219 16.4803Z" fill="#212123"/>
<rect x="2" y="14" width="20" height="8" rx="1" fill="#212123"/>
<path d="M19.0018 16L18.9098 18.798H18.3047L18.1934 16H19.0018ZM18.266 19.6355C18.266 19.4286 18.4064 19.2857 18.6097 19.2857C18.8081 19.2857 18.9485 19.4286 18.9485 19.6355C18.9485 19.8374 18.8081 19.9852 18.6097 19.9852C18.4064 19.9852 18.266 19.8374 18.266 19.6355Z" fill="white"/>
<path d="M16.9555 16.2117L16.878 17.0245H17.4637V17.6156H16.8248L16.7425 18.4974H17.3427V19.0934H16.7086L16.6311 19.8964H16.0309L16.1132 19.0934H15.2128L15.1402 19.8964H14.5399L14.6173 19.0934H14.0171V18.4974H14.6512L14.7335 17.6156H14.1478V17.0245H14.7868L14.8594 16.2117H15.4596L15.387 17.0245H16.2826L16.3552 16.2117H16.9555ZM15.2467 18.4974H16.1422L16.2342 17.6156H15.3386L15.2467 18.4974Z" fill="white"/>
<path d="M13.6221 19.8915H12.7265L12.4603 19.6008C12.194 19.8323 11.86 19.9998 11.4389 19.9998C10.2626 19.9998 10.1899 19.0195 10.1899 18.8718C10.1899 18.7437 10.248 18.192 10.766 17.8176C10.6063 17.6452 10.4465 17.4333 10.4465 17.1082C10.4465 16.6993 10.7854 16.1575 11.4389 16.1575C12.0875 16.1575 12.4506 16.6747 12.4506 17.1082C12.4506 17.4777 12.2328 17.7437 11.8503 17.9801L12.4312 18.6156C12.5184 18.4727 12.6007 18.3151 12.6781 18.1722L13.2445 18.4924C13.1525 18.6649 13.0412 18.8865 12.8911 19.1033L13.6221 19.8915ZM10.8386 18.8718C10.8386 18.9752 10.8677 19.3397 11.4389 19.3397C11.6615 19.3397 11.8503 19.256 12.0101 19.1279L11.2404 18.2954C10.8773 18.4924 10.8386 18.7929 10.8386 18.8718ZM11.0952 17.1082C11.0952 17.2461 11.2259 17.3397 11.3856 17.4974C11.7003 17.3447 11.8019 17.2461 11.8019 17.1082C11.8019 16.9456 11.6857 16.8176 11.4389 16.8176C11.1678 16.8176 11.0952 16.9555 11.0952 17.1082Z" fill="white"/>
<path d="M5.83262 19.8869L8.08843 16.212H8.70805L6.43772 19.8869H5.83262ZM5 17.1479C5 16.5913 5.42115 16.1479 5.95848 16.1479C6.49097 16.1479 6.91212 16.5913 6.91212 17.1479C6.91212 17.7095 6.49097 18.1479 5.95848 18.1479C5.42115 18.1479 5 17.7095 5 17.1479ZM5.57121 17.1479C5.57121 17.3844 5.74064 17.5667 5.95848 17.5667C6.17631 17.5667 6.34574 17.3844 6.34574 17.1479C6.34574 16.9164 6.17631 16.7342 5.95848 16.7342C5.74064 16.7342 5.57121 16.9164 5.57121 17.1479ZM7.58015 18.9115C7.58015 18.3499 8.0013 17.9115 8.53863 17.9115C9.07111 17.9115 9.49226 18.3499 9.49226 18.9115C9.49226 19.4681 9.07111 19.9115 8.53863 19.9115C8.0013 19.9115 7.58015 19.4681 7.58015 18.9115ZM8.15136 18.9115C8.15136 19.143 8.32079 19.3302 8.53863 19.3302C8.75646 19.3302 8.92589 19.143 8.92589 18.9115C8.92589 18.675 8.75646 18.4928 8.53863 18.4928C8.32079 18.4928 8.15136 18.675 8.15136 18.9115Z" fill="white"/>
<path fill-rule="evenodd" clip-rule="evenodd" d="M15.675 11.3699L12.8117 11.847L12.6885 11.1072L15.5518 10.6301L15.675 11.3699Z" fill="#212123"/>
<path fill-rule="evenodd" clip-rule="evenodd" d="M8.32498 11.3699L11.1883 11.847L11.3115 11.1072L8.44824 10.6301L8.32498 11.3699Z" fill="#212123"/>
<defs>
<linearGradient id="paint0_linear_367_8412" x1="7.81444" y1="5.93992" x2="10.7123" y2="20.2404" gradientUnits="userSpaceOnUse">
<stop stop-color="#FFC8AC"/>
<stop offset="0.750181" stop-color="#FBDFD1"/>
</linearGradient>
<linearGradient id="paint1_linear_367_8412" x1="7.625" y1="1.625" x2="18.25" y2="12.25" gradientUnits="userSpaceOnUse">
<stop stop-color="#212123"/>
<stop offset="1" stop-color="#424245"/>
</linearGradient>
</defs>
</svg>
